<svg width="32" height="32" viewBox="0 0 32 32" fill="none" xmlns="http://www.w3.org/2000/svg">
<path d="M12.86 17.73L5.45996 25.13V21.89C5.45996 21.6247 5.3546 21.3704 5.16707 21.1829C4.97953 20.9953 4.72518 20.89 4.45996 20.89C4.19474 20.89 3.94039 20.9953 3.75285 21.1829C3.56532 21.3704 3.45996 21.6247 3.45996 21.89V27.53C3.45996 27.53 3.45996 27.58 3.45996 27.61C3.47224 27.8057 3.54179 27.9935 3.65996 28.15C3.70136 28.2046 3.74827 28.2549 3.79996 28.3C3.9811 28.4549 4.21162 28.54 4.44996 28.54H10.1C10.3652 28.54 10.6195 28.4346 10.8071 28.2471C10.9946 28.0595 11.1 27.8052 11.1 27.54C11.1 27.2747 10.9946 27.0204 10.8071 26.8329C10.6195 26.6453 10.3652 26.54 10.1 26.54H6.86996L14.27 19.14C14.4338 18.9487 14.5194 18.7026 14.5097 18.4509C14.5 18.1992 14.3956 17.9605 14.2175 17.7824C14.0394 17.6043 13.8007 17.5 13.549 17.4902C13.2973 17.4805 13.0513 17.5661 12.86 17.73Z" fill="black"/>
<path d="M28.2999 3.80997C28.2548 3.75828 28.2046 3.71137 28.1499 3.66997C27.9934 3.5518 27.8056 3.48225 27.6099 3.46997H21.8899C21.6247 3.46997 21.3703 3.57533 21.1828 3.76286C20.9953 3.9504 20.8899 4.20475 20.8899 4.46997C20.8899 4.73519 20.9953 4.98954 21.1828 5.17708C21.3703 5.36461 21.6247 5.46997 21.8899 5.46997H25.1199L17.7199 12.87C17.6152 12.9596 17.5302 13.0699 17.4702 13.194C17.4102 13.3181 17.3764 13.4532 17.3711 13.5909C17.3658 13.7286 17.389 13.866 17.4393 13.9943C17.4895 14.1226 17.5658 14.2392 17.6633 14.3366C17.7607 14.4341 17.8773 14.5103 18.0056 14.5606C18.1339 14.6109 18.2712 14.6341 18.409 14.6288C18.5467 14.6234 18.6818 14.5897 18.8059 14.5297C18.9299 14.4697 19.0403 14.3847 19.1299 14.28L26.5299 6.87997V10.11C26.5299 10.3752 26.6353 10.6295 26.8228 10.8171C27.0103 11.0046 27.2647 11.11 27.5299 11.11C27.7951 11.11 28.0495 11.0046 28.237 10.8171C28.4245 10.6295 28.5299 10.3752 28.5299 10.11V4.45997C28.5327 4.22289 28.4512 3.99252 28.2999 3.80997Z" fill="black"/>
<path d="M27.54 20.8899C27.2747 20.8899 27.0204 20.9953 26.8329 21.1828C26.6453 21.3704 26.54 21.6247 26.54 21.8899V25.1199L19.14 17.7199C18.9487 17.5561 18.7026 17.4705 18.4509 17.4802C18.1992 17.49 17.9605 17.5943 17.7824 17.7724C17.6043 17.9505 17.5 18.1892 17.4902 18.4409C17.4805 18.6926 17.5661 18.9386 17.73 19.1299L25.13 26.5299H21.89C21.6247 26.5299 21.3704 26.6353 21.1829 26.8228C20.9953 27.0104 20.89 27.2647 20.89 27.5299C20.89 27.7952 20.9953 28.0495 21.1829 28.2371C21.3704 28.4246 21.6247 28.5299 21.89 28.5299H27.54C27.7783 28.53 28.0088 28.4449 28.19 28.2899C28.2416 28.2449 28.2886 28.1946 28.33 28.1399C28.4481 27.9835 28.5177 27.7957 28.53 27.5999C28.53 27.5999 28.53 27.5499 28.53 27.5199V21.8899C28.53 21.6265 28.426 21.3736 28.2406 21.1864C28.0552 20.9991 27.8034 20.8926 27.54 20.8899Z" fill="black"/>
<path d="M6.86997 5.45996H10.1C10.3652 5.45996 10.6195 5.3546 10.8071 5.16707C10.9946 4.97953 11.1 4.72518 11.1 4.45996C11.1 4.19474 10.9946 3.94039 10.8071 3.75285C10.6195 3.56532 10.3652 3.45996 10.1 3.45996H4.45997C4.22163 3.45994 3.99111 3.54506 3.80997 3.69996C3.75828 3.74503 3.71137 3.79529 3.66997 3.84996C3.5518 4.00646 3.48225 4.19424 3.46997 4.38996C3.46997 4.38996 3.46997 4.43996 3.46997 4.46996V10.11C3.46997 10.3752 3.57533 10.6295 3.76286 10.8171C3.9504 11.0046 4.20475 11.11 4.46997 11.11C4.73519 11.11 4.98954 11.0046 5.17708 10.8171C5.36461 10.6295 5.46997 10.3752 5.46997 10.11V6.86996L12.87 14.27C13.0613 14.4338 13.3073 14.5194 13.559 14.5097C13.8107 14.5 14.0494 14.3956 14.2275 14.2175C14.4056 14.0394 14.51 13.8007 14.5197 13.549C14.5294 13.2973 14.4438 13.0513 14.28 12.86L6.86997 5.45996Z" fill="black"/>
</svg>
